<?xml version="1.0" encoding="UTF-8" standalone="no"?>
<svg
   xmlns:dc="http://purl.org/dc/elements/1.1/"
   xmlns:cc="http://creativecommons.org/ns#"
   xmlns:rdf="http://www.w3.org/1999/02/22-rdf-syntax-ns#"
   xmlns:svg="http://www.w3.org/2000/svg"
   xmlns="http://www.w3.org/2000/svg"
   xmlns:sodipodi="http://sodipodi.sourceforge.net/DTD/sodipodi-0.dtd"
   xmlns:inkscape="http://www.inkscape.org/namespaces/inkscape"
   width="291.29749mm"
   height="52.916664mm"
   viewBox="0 0 291.29748 52.916664"
   version="1.1"
   id="svg3316"
   inkscape:version="1.0.1 (3bc2e813f5, 2020-09-07)"
   sodipodi:docname="Fidelidade_Seguros.svg">
  <defs
     id="defs3310">
    <clipPath
       id="clip9">
      <path
         d="M 60.433594,332.05078 H 197.28906 V 348 H 60.433594 Z m 0,0"
         id="path1359" />
    </clipPath>
    <clipPath
       id="clip10">
      <path
         d="m 90,353 h 77 v 3.99609 H 90 Z m 0,0"
         id="path1362" />
    </clipPath>
  </defs>
  <sodipodi:namedview
     id="base"
     pagecolor="#ffffff"
     bordercolor="#666666"
     borderopacity="1.0"
     inkscape:pageopacity="0.0"
     inkscape:pageshadow="2"
     inkscape:zoom="0.35"
     inkscape:cx="-314.18861"
     inkscape:cy="-368.54372"
     inkscape:document-units="mm"
     inkscape:current-layer="layer1"
     inkscape:document-rotation="0"
     showgrid="false"
     inkscape:window-width="1360"
     inkscape:window-height="706"
     inkscape:window-x="-8"
     inkscape:window-y="-8"
     inkscape:window-maximized="1" />
  <metadata
     id="metadata3313">
    <rdf:RDF>
      <cc:Work
         rdf:about="">
        <dc:format>image/svg+xml</dc:format>
        <dc:type
           rdf:resource="http://purl.org/dc/dcmitype/StillImage" />
        <dc:title></dc:title>
      </cc:Work>
    </rdf:RDF>
  </metadata>
  <g
     inkscape:label="Camada 1"
     inkscape:groupmode="layer"
     id="layer1"
     transform="translate(-188.9624,-245.67719)">
    <g
       clip-path="url(#clip9)"
       clip-rule="nonzero"
       id="g2155"
       transform="matrix(2.1286261,0,0,2.1286261,60.30525,-461.19277)">
      <path
         style="fill:#ee3023;fill-opacity:1;fill-rule:nonzero;stroke:none"
         d="m 156.96875,341.14844 h 3.87109 l -1.9375,-4.83594 z m 0.25,-9.07032 h 3.375 l 6.14844,15.41016 h -3.3711 l -1.18359,-2.96484 h -6.5625 l -1.1875,2.96875 h -3.37109 z m 40.07422,3.375 v -3.375 h -9.72656 v 15.41016 h 9.72656 v -3.37109 h -6.35156 v -2.64453 h 5.69531 v -3.375 h -5.69531 v -2.64454 z M 74.546875,347.48828 h 3.367188 v -15.41016 h -3.367188 z m 42.593755,-15.41016 h -3.3711 v 15.41016 h 9.72656 v -3.37109 h -6.35546 z m 10.73437,15.41016 h 3.37109 V 332.07812 H 127.875 Z m -18.48437,-12.03516 v -3.375 h -9.726567 v 15.41016 h 9.726567 v -3.37109 h -6.35157 v -2.64453 h 5.69532 v -3.375 h -5.69532 v -2.64454 z M 60.441406,347.48828 H 63.8125 v -6.01562 h 5.695313 v -3.375 H 63.8125 v -2.64454 h 6.355469 v -3.375 h -9.726563 z m 119.832034,-7.70312 c 0,-2.375 -1.9336,-4.33204 -4.3086,-4.33204 h -2.39453 v 8.66407 h 2.39453 c 2.375,0 4.3086,-1.95703 4.3086,-4.33203 m 3.39843,0 c 0,4.24609 -3.46093,7.70312 -7.70703,7.70312 h -5.76953 v -15.41016 h 5.76953 c 4.2461,0 7.70703,3.45704 7.70703,7.70704 m -91.304682,0 c 0,-2.375 -1.929688,-4.33204 -4.304688,-4.33204 h -2.394531 v 8.66407 H 88.0625 c 2.375,0 4.304688,-1.95703 4.304688,-4.33203 m 3.402343,0 c 0,4.24609 -3.460937,7.70312 -7.707031,7.70312 H 82.296875 V 332.07812 H 88.0625 c 4.246094,0 7.707031,3.45704 7.707031,7.70704 m 53.652339,-0.004 c 0,4.25 -3.45703,7.70703 -7.70312,7.70703 h -5.78906 l 3.36718,-4.18359 h 5.67579 l 1.60156,-0.66797 1.4414,-2.85547 -4,-2.35547 -0.36718,-1.41016 -2.71094,-1.17968 -1.64063,-2.75782 -3.36718,3.375 v -3.375 h 6.05859 c 3.97656,0 7.43359,3.45704 7.43359,7.70313"
         id="path2153" />
    </g>
    <g
       clip-path="url(#clip10)"
       clip-rule="nonzero"
       id="g2159"
       transform="matrix(2.1286261,0,0,2.1286261,60.30525,-461.19277)">
      <path
         style="fill:#ee3023;fill-opacity:1;fill-rule:nonzero;stroke:none"
         d="m 166.06641,354.38281 c 0,-0.23828 -0.20313,-0.41797 -0.46094,-0.41797 -0.26563,0 -0.46485,0.17969 -0.46485,0.41797 0,0.23828 0.20704,0.41797 0.46485,0.41797 0.2539,0 0.46094,-0.17969 0.46094,-0.41797 m 0.0703,1.44531 c 0,-0.27734 -0.23828,-0.48437 -0.53125,-0.48437 -0.29688,0 -0.53125,0.20703 -0.53125,0.48437 0,0.27735 0.22656,0.47657 0.53125,0.47657 0.30078,0 0.53125,-0.19922 0.53125,-0.47657 m -1.85156,0.0547 c 0,-0.3789 0.20703,-0.69922 0.58593,-0.84375 v -0.0117 c -0.30859,-0.12109 -0.47656,-0.39453 -0.47656,-0.71484 0,-0.55859 0.52734,-0.97266 1.21094,-0.97266 0.67578,0 1.20312,0.41407 1.20312,0.97266 0,0.32031 -0.16797,0.59375 -0.48047,0.71484 v 0.0117 c 0.38282,0.14453 0.59375,0.46485 0.59375,0.84375 0,0.62891 -0.5625,1.05469 -1.3164,1.05469 -0.75781,0 -1.32031,-0.42578 -1.32031,-1.05469 m -2.84766,0.1836 c 0.11719,-0.16407 0.16797,-0.44141 0.16797,-0.9336 0,-0.4375 -0.043,-0.73828 -0.16797,-0.91797 -0.0742,-0.11328 -0.19141,-0.1914 -0.34766,-0.1914 -0.15625,0 -0.27734,0.0781 -0.35547,0.1914 -0.12109,0.17188 -0.16015,0.48047 -0.16015,0.92578 0,0.47657 0.0469,0.76172 0.16015,0.92579 0.0781,0.10546 0.19922,0.1875 0.35547,0.1875 0.15625,0 0.27344,-0.082 0.34766,-0.1875 m -1.3125,0.39843 c -0.21875,-0.30078 -0.32031,-0.71093 -0.32031,-1.32812 0,-0.60938 0.10156,-1.02735 0.32031,-1.32422 0.22656,-0.30859 0.57812,-0.47266 0.96484,-0.47266 0.39063,0 0.73438,0.16407 0.96094,0.47266 0.21875,0.29687 0.32031,0.71484 0.32031,1.32422 0,0.61719 -0.10156,1.02734 -0.32031,1.32812 -0.22656,0.3086 -0.57031,0.47266 -0.96094,0.47266 -0.38672,0 -0.73828,-0.16406 -0.96484,-0.47266 m -3.08984,-2.08203 c 0,-0.23828 -0.19922,-0.41797 -0.46094,-0.41797 -0.26172,0 -0.46485,0.17969 -0.46485,0.41797 0,0.23828 0.20704,0.41797 0.46485,0.41797 0.2539,0 0.46094,-0.17969 0.46094,-0.41797 m 0.0703,1.44531 c 0,-0.27734 -0.23828,-0.48437 -0.53125,-0.48437 -0.29688,0 -0.53125,0.20703 -0.53125,0.48437 0,0.27735 0.22656,0.47657 0.53125,0.47657 0.30469,0 0.53125,-0.19922 0.53125,-0.47657 m -1.84766,0.0547 c 0,-0.3789 0.20703,-0.69922 0.58594,-0.84375 v -0.0117 c -0.30859,-0.12109 -0.47656,-0.39453 -0.47656,-0.71484 0,-0.55859 0.52734,-0.97266 1.20703,-0.97266 0.67969,0 1.20312,0.41407 1.20312,0.97266 0,0.32031 -0.16406,0.59375 -0.47656,0.71484 v 0.0117 c 0.38281,0.14453 0.58984,0.46485 0.58984,0.84375 0,0.62891 -0.55859,1.05469 -1.3164,1.05469 -0.75781,0 -1.31641,-0.42578 -1.31641,-1.05469 m -3.15625,-1.57031 -0.70703,0.25781 V 353.875 l 1.47656,-0.53516 v 3.54297 h -0.76953 z m -7.44922,-0.92188 h 2.16016 v 0.67188 h -1.39063 v 0.6875 h 1.19532 v 0.63281 h -1.19532 v 0.83203 h 1.44141 v 0.66797 h -2.21094 z m -4.04687,2.82422 c 0.96094,0 1.36719,-0.39062 1.36719,-1.08203 0,-0.36328 -0.14454,-0.67578 -0.40625,-0.85937 -0.24219,-0.17188 -0.57813,-0.21094 -0.96875,-0.21094 h -0.20704 v 2.15234 z m -0.98438,-2.82422 h 0.98438 c 1.38672,0 2.13672,0.625 2.13672,1.74219 0,1.07422 -0.67969,1.75 -2.17188,1.75 h -0.94922 z m -4.24609,2.52735 c 0.37891,0.24219 0.82031,0.35156 1.09375,0.35156 0.27734,0 0.48828,-0.11328 0.48828,-0.375 0,-0.32031 -0.32812,-0.35156 -0.77734,-0.49609 -0.48438,-0.16016 -0.91407,-0.39453 -0.91407,-1.00391 0,-0.65234 0.49219,-1.05469 1.22266,-1.05469 0.33984,0 0.76172,0.0859 1.06641,0.25 v 0.75782 c -0.3711,-0.23047 -0.80078,-0.33594 -1.07032,-0.33594 -0.26171,0 -0.44921,0.0937 -0.44921,0.32422 0,0.3125 0.32421,0.33593 0.74218,0.47656 0.52735,0.17187 0.94922,0.41797 0.94922,1.03516 0,0.67968 -0.51172,1.08984 -1.26562,1.08984 -0.34766,0 -0.76563,-0.0859 -1.08594,-0.24609 z m -4.12891,-2.52735 h 2.15235 v 0.67188 h -1.38672 v 0.6875 h 1.19922 v 0.63281 h -1.19922 v 0.83203 h 1.4414 v 0.66797 h -2.20703 z m -4.05468,2.82422 c 0.96484,0 1.37109,-0.39062 1.37109,-1.08203 0,-0.36328 -0.14453,-0.67578 -0.40625,-0.85937 -0.24609,-0.17188 -0.57812,-0.21094 -0.96875,-0.21094 h -0.20703 v 2.15234 z m -0.97657,-2.82422 h 0.97657 c 1.39062,0 2.14062,0.625 2.14062,1.74219 0,1.07422 -0.67578,1.75 -2.17187,1.75 h -0.94532 z m -6.83984,2.52735 c 0.375,0.24219 0.82031,0.35156 1.09375,0.35156 0.27734,0 0.48828,-0.11328 0.48828,-0.375 0,-0.32031 -0.32812,-0.35156 -0.77734,-0.49609 -0.48047,-0.16016 -0.91406,-0.39453 -0.91406,-1.00391 0,-0.65234 0.48828,-1.05469 1.22656,-1.05469 0.33984,0 0.76172,0.0859 1.0625,0.25 v 0.75782 c -0.36719,-0.23047 -0.80078,-0.33594 -1.07031,-0.33594 -0.25782,0 -0.44922,0.0937 -0.44922,0.32422 0,0.3125 0.32031,0.33593 0.74218,0.47656 0.52735,0.17187 0.94922,0.41797 0.94922,1.03516 0,0.67968 -0.51172,1.08984 -1.26562,1.08984 -0.34766,0 -0.76563,-0.0859 -1.08594,-0.24609 z m -2.67187,-0.78125 c 0,-0.61328 -0.45313,-1.10156 -1.0586,-1.10156 -0.59765,0 -1.05469,0.48828 -1.05469,1.10156 0,0.61719 0.45704,1.10547 1.05469,1.10547 0.60547,0 1.0586,-0.48828 1.0586,-1.10547 m -2.87891,0 c 0,-1.01563 0.78516,-1.79688 1.82031,-1.79688 1.03906,0 1.82422,0.78125 1.82422,1.79688 0,1.01953 -0.78516,1.80078 -1.82422,1.80078 -1.03515,0 -1.82031,-0.78125 -1.82031,-1.80078 m -3.29297,-0.20703 c 0.4375,0 0.68359,-0.10938 0.68359,-0.4336 0,-0.30468 -0.20312,-0.43359 -0.77343,-0.43359 h -0.29688 v 0.86719 z m -1.14844,-1.53907 h 1.09375 c 0.79688,0 1.50391,0.21875 1.50391,1.05469 0,0.44922 -0.24609,0.8125 -0.70703,0.96094 l 0.98437,1.47656 h -0.88672 l -0.88281,-1.3789 h -0.34375 v 1.3789 h -0.76172 z m -5.09375,1.82032 v -1.82032 h 0.76563 v 1.79297 c 0,0.73047 0.16406,1.0625 0.77344,1.0625 0.55859,0 0.76562,-0.30859 0.76562,-1.05859 v -1.79688 h 0.73438 v 1.80079 c 0,0.52343 -0.0703,0.90625 -0.26954,1.1875 -0.24218,0.35156 -0.6914,0.55859 -1.25,0.55859 -0.55859,0 -1.01171,-0.20703 -1.25781,-0.57031 -0.1914,-0.28125 -0.26172,-0.65625 -0.26172,-1.15625 m -3.20312,-1.8711 c 0.42578,0 0.80078,0.11719 1.07031,0.26563 v 0.77344 c -0.29297,-0.20313 -0.67578,-0.35157 -1.05469,-0.35157 -0.70703,0 -1.160154,0.5 -1.160154,1.1211 0,0.60547 0.437504,1.12109 1.152344,1.12109 0.16016,0 0.3125,-0.0312 0.42969,-0.082 v -0.52734 h -0.60938 v -0.63282 h 1.35157 v 1.6211 c -0.31641,0.17578 -0.75391,0.28906 -1.1836,0.28906 -1.121092,0 -1.906249,-0.75781 -1.906249,-1.78516 0,-1.03125 0.796875,-1.8125 1.910159,-1.8125 m -5.914065,0.0508 h 2.15625 v 0.67188 H 95.9375 v 0.6875 h 1.199219 v 0.63281 H 95.9375 v 0.83203 h 1.445313 v 0.66797 h -2.210938 z m -4.25,2.52735 c 0.378906,0.24219 0.820313,0.35156 1.097656,0.35156 0.277344,0 0.484375,-0.11328 0.484375,-0.375 0,-0.32031 -0.328125,-0.35156 -0.773437,-0.49609 -0.488281,-0.16016 -0.921875,-0.39453 -0.921875,-1.00391 0,-0.65234 0.496094,-1.05469 1.226562,-1.05469 0.34375,0 0.761719,0.0859 1.066407,0.25 v 0.75782 c -0.367188,-0.23047 -0.800782,-0.33594 -1.070313,-0.33594 -0.257812,0 -0.449219,0.0937 -0.449219,0.32422 0,0.3125 0.324219,0.33593 0.742188,0.47656 0.527344,0.17187 0.953125,0.41797 0.953125,1.03516 0,0.67968 -0.515625,1.08984 -1.269531,1.08984 -0.347657,0 -0.769532,-0.0859 -1.085938,-0.24609"
         id="path2157" />
    </g>
  </g>
</svg>
